<?xml version="1.0" standalone="no"?>
<!DOCTYPE svg PUBLIC "-//W3C//DTD SVG 20010904//EN"
 "http://www.w3.org/TR/2001/REC-SVG-20010904/DTD/svg10.dtd">
<svg version="1.0" xmlns="http://www.w3.org/2000/svg"
 width="512.000000pt" height="512.000000pt" viewBox="0 0 512.000000 512.000000"
 preserveAspectRatio="xMidYMid meet">
<metadata>
Created by potrace 1.11, written by Peter Selinger 2001-2013
</metadata>
<g transform="translate(0.000000,512.000000) scale(0.100000,-0.100000)"
fill="#000000" stroke="none">
<path d="M1012 5109 c-150 -29 -278 -151 -318 -304 -11 -41 -14 -446 -14
-2245 0 -1799 3 -2204 14 -2245 42 -157 168 -275 326 -305 72 -14 3008 -14
3080 0 158 30 284 148 326 305 11 41 14 360 14 1725 l0 1674 -687 689 c-379
379 -700 695 -715 703 -23 12 -175 14 -1005 13 -538 -1 -997 -5 -1021 -10z
m1878 -651 c0 -255 5 -491 10 -526 25 -177 161 -318 339 -352 32 -6 247 -10
527 -10 l474 0 0 -1597 c0 -1526 -1 -1600 -19 -1638 -26 -57 -77 -103 -135
-120 -75 -22 -2977 -22 -3052 0 -58 17 -109 63 -135 120 -18 38 -19 130 -19
2225 0 2095 1 2187 19 2225 25 56 77 103 131 120 37 11 206 14 953 14 l907 1
0 -462z m1123 -686 c-43 -2 -231 -2 -418 0 -326 3 -342 4 -380 25 -50 27 -80
58 -100 105 -13 32 -15 100 -15 450 l0 413 495 -495 495 -495 -77 -3z"/>
<path d="M1714 2540 c-30 -12 -64 -58 -64 -87 0 -31 17 -63 44 -85 20 -16 80
-18 866 -18 786 0 846 2 866 18 51 41 57 97 15 144 l-29 33 -839 2 c-461 1
-848 -2 -859 -7z"/>
<path d="M1723 2093 c-30 -6 -73 -59 -73 -89 0 -33 25 -81 49 -94 27 -14 1695
-14 1722 0 24 13 49 61 49 94 0 14 -13 40 -29 58 l-29 33 -834 1 c-458 1 -843
0 -855 -3z"/>
<path d="M1726 1640 c-41 -13 -65 -38 -72 -76 -8 -44 13 -85 56 -106 32 -17
94 -18 850 -18 756 0 818 1 850 18 68 34 77 121 17 166 -28 21 -33 21 -850 23
-452 1 -835 -2 -851 -7z"/>
<path d="M1697 1179 c-22 -13 -47 -61 -47 -93 0 -14 13 -40 29 -58 l29 -33
559 -3 c307 -2 573 0 592 3 79 15 109 109 52 166 l-29 29 -584 0 c-377 -1
-589 -4 -601 -11z"/>
</g>
</svg>
